# xmcd
#
# Track frame offsets:
#	150
#	11961
#	28758
#	42060
#	56204
#	63639
#	82386
#	88487
#	98106
#	111003
#	124758
#	141134
#	150635
#	162046
#	171047
#	180693
#
# Disc length: 2571 seconds
# Revision: 0
# Processed by: cddbd v1.5.2PL0 Copyright (c) Steve Scherf et al.
# Submitted via: dBpowerAMP V12.0
#
DISCID=df0a0910
DTITLE=Fletcher Bright and Bill Evans - Songs That Are Mostly Older Than Us
DYEAR=2016
DGENRE=Country
TTITLE0=Glory in the Meetinghouse
TTITLE1=Blake's March
TTITLE2=Berkeley Shanghai
TTITLE3=Elzic's Farewell
TTITLE4=Sugar Tree Stomp
TTITLE5=Norman and Nancy
TTITLE6=Hannah in the Springhouse
TTITLE7=Snowbird in the Ash Bank
TTITLE8=Kennedy Rag
TTITLE9=Bb Hornpipe Medley
TTITLE10=Old Ebenezer Scrooge
TTITLE11=Cluck Old Hen
TTITLE12=Heart of the Heartland
TTITLE13=Brilliancy
TTITLE14=American Rifle Team Hornpipe
TTITLE15=Whiskey Before Breakfast
EXTD=
EXTT0=
EXTT1=
EXTT2=
EXTT3=
EXTT4=
EXTT5=
EXTT6=
EXTT7=
EXTT8=
EXTT9=
EXTT10=
EXTT11=
EXTT12=
EXTT13=
EXTT14=
EXTT15=
PLAYORDER=
